<?xml version="1.0" standalone="no"?>
<!DOCTYPE svg PUBLIC "-//W3C//DTD SVG 20010904//EN"
 "http://www.w3.org/TR/2001/REC-SVG-20010904/DTD/svg10.dtd">
<svg version="1.0" xmlns="http://www.w3.org/2000/svg"
 width="500.000000pt" height="500.000000pt" viewBox="0 0 500.000000 500.000000"
 preserveAspectRatio="xMidYMid meet">
<metadata>
Created by potrace 1.11, written by Peter Selinger 2001-2013
</metadata>
<g transform="translate(0.000000,500.000000) scale(0.100000,-0.100000)"
fill="#000000" stroke="none">
<path d="M1939 3451 c10 -7 10 -10 1 -16 -7 -4 -16 -1 -21 6 -6 10 -9 11 -9 2
0 -7 -5 -13 -11 -13 -5 0 -7 5 -3 11 4 8 0 8 -15 0 -27 -15 -27 -25 6 -80 39
-68 78 -113 131 -153 26 -20 243 -145 482 -278 239 -133 443 -249 454 -259 17
-15 14 -16 -62 -21 -67 -5 -85 -10 -107 -30 -34 -32 -34 -88 -1 -127 24 -28
25 -28 160 -31 l136 -4 0 -53 0 -54 -321 -3 -321 -3 -24 -28 c-25 -30 -31 -75
-14 -108 24 -44 54 -49 321 -49 286 0 279 4 136 -75 -77 -42 -97 -66 -97 -113
0 -43 46 -92 86 -92 36 0 185 84 247 140 109 97 168 231 169 381 1 154 -46
266 -156 374 -66 65 -101 87 -490 300 -455 250 -506 279 -506 295 0 6 81 10
233 10 229 0 234 0 254 23 41 45 36 54 -21 31 -16 -6 -18 -4 -13 12 7 18 6 18
-7 2 -14 -19 -32 -25 -21 -8 6 9 -17 4 -40 -9 -17 -9 -35 -10 -29 0 5 9 -5 11
-76 13 -19 1 -46 5 -60 9 -14 4 -19 4 -12 1 6 -3 12 -10 12 -15 0 -6 -4 -8 -9
-5 -5 4 -12 0 -14 -6 -4 -10 -6 -10 -6 -1 -1 7 -8 10 -16 7 -8 -3 -28 -1 -45
4 -19 7 -30 7 -30 1 0 -6 -7 -6 -19 0 -10 6 -21 8 -25 4 -3 -3 -20 -6 -38 -5
-23 1 -28 -2 -18 -8 13 -8 12 -10 -2 -10 -10 0 -18 7 -18 17 0 13 -3 14 -12 5
-14 -14 -32 -16 -24 -4 3 5 -1 9 -9 9 -8 0 -11 -5 -8 -11 3 -6 0 -5 -8 2 -19
17 -32 15 -25 -5 6 -14 3 -14 -15 3 -12 10 -19 13 -15 7 4 -7 2 -13 -3 -13 -6
0 -11 7 -11 15 0 8 -8 15 -17 15 -14 0 -15 -2 -4 -9z"/>
<path d="M2476 3447 c3 -10 9 -15 12 -12 3 3 0 11 -7 18 -10 9 -11 8 -5 -6z"/>
<path d="M2800 3448 c0 -9 -6 -19 -12 -22 -9 -3 -6 -11 11 -25 19 -17 37 -21
98 -21 94 0 93 -10 -13 -71 -43 -26 -87 -54 -96 -63 -44 -40 -28 -119 29 -143
32 -13 38 -12 87 10 154 71 271 181 315 300 8 21 8 26 -1 21 -8 -5 -9 -2 -4
11 7 18 6 18 -13 1 -18 -17 -22 -17 -51 -3 -16 9 -27 11 -24 5 5 -7 0 -9 -14
-6 -14 4 -23 0 -27 -11 -6 -14 -8 -14 -21 3 -15 22 -44 30 -44 14 0 -6 -7 -7
-16 -4 -14 5 -15 4 -4 -9 11 -13 10 -14 -4 -9 -9 3 -16 11 -16 18 0 6 -5 4
-10 -4 -8 -13 -10 -12 -10 4 0 16 -2 17 -17 5 -14 -12 -16 -12 -9 0 6 9 4 12
-5 9 -8 -3 -14 -10 -14 -17 0 -8 -15 -15 -37 -17 -22 -2 -38 1 -38 8 0 5 7 8
15 5 8 -4 17 -1 21 5 4 6 3 8 -4 4 -5 -3 -12 -1 -14 5 -3 8 -10 6 -20 -5 -16
-15 -18 -15 -27 1 -9 16 -10 16 -11 1z m240 -18 c0 -5 -2 -10 -4 -10 -3 0 -8
5 -11 10 -3 6 -1 10 4 10 6 0 11 -4 11 -10z"/>
<path d="M3175 3450 c-3 -5 -1 -10 4 -10 6 0 11 5 11 10 0 6 -2 10 -4 10 -3 0
-8 -4 -11 -10z"/>
<path d="M2214 2931 c-11 -3 -60 -28 -108 -55 -190 -108 -289 -270 -288 -475
1 -149 60 -283 169 -381 32 -29 208 -133 494 -293 244 -136 455 -256 469 -267
l25 -20 -258 0 c-283 0 -304 -4 -326 -58 -15 -37 -6 -74 26 -104 24 -23 26
-23 341 -28 l317 -5 0 -50 0 -50 -131 -5 c-110 -4 -135 -8 -152 -24 -46 -40
-35 -124 19 -151 16 -9 56 -15 95 -15 l67 0 -24 -18 c-13 -11 -75 -47 -136
-81 -62 -35 -122 -74 -133 -88 -27 -35 -25 -75 6 -112 41 -49 76 -43 223 36
228 123 333 260 356 463 16 139 -48 311 -154 417 -50 50 -118 91 -501 303
-243 135 -456 255 -473 268 l-31 22 31 0 c49 0 93 20 108 51 19 35 19 53 1 88
-21 40 -56 51 -156 51 l-90 0 0 55 0 55 275 0 c303 0 321 3 345 59 18 44 4 89
-33 112 -29 17 -53 19 -257 19 l-225 1 29 24 c16 13 61 41 99 62 95 51 119
106 75 166 -16 21 -65 36 -94 28z"/>
<path d="M2117 1674 c-126 -72 -194 -140 -247 -248 -95 -194 -69 -363 67 -443
l48 -28 293 -3 292 -3 30 30 c43 42 42 99 -1 135 l-31 26 -269 0 -269 0 -15
24 c-9 14 -15 37 -13 53 l3 28 95 5 c110 7 125 12 145 51 37 70 1 129 -84 137
l-54 5 24 19 c13 10 57 36 96 59 83 46 103 69 103 117 0 43 -46 92 -87 92 -16
0 -71 -25 -126 -56z"/>
</g>
</svg>
